<svg width="23" height="23" viewBox="0 0 23 23" fill="none" xmlns="http://www.w3.org/2000/svg">
<path d="M14.7344 11.5C14.7344 16.1719 20.4844 16.1719 20.4844 11.5C20.4844 6.53807 16.462 2.51562 11.5 2.51562C6.53807 2.51562 2.51562 6.53807 2.51562 11.5C2.51562 16.4619 6.53807 20.4844 11.5 20.4844C14.7344 20.4844 16.1719 19.0469 16.1719 19.0469" stroke="#5C5C5C" stroke-linecap="round" stroke-linejoin="round"/>
<path d="M11.5 14.7344C13.2863 14.7344 14.7344 13.2863 14.7344 11.5C14.7344 9.7137 13.2863 8.26562 11.5 8.26562C9.7137 8.26562 8.26562 9.7137 8.26562 11.5C8.26562 13.2863 9.7137 14.7344 11.5 14.7344Z" stroke="#5C5C5C" stroke-linecap="round" stroke-linejoin="round"/>
</svg>
