<svg width="19" height="19" viewBox="0 0 19 19" fill="none" xmlns="http://www.w3.org/2000/svg">
<path d="M18.5 6.50024V0.500244M14.5 6.50024V0.500244M16 18.5002C7.43959 18.5002 0.5 11.5606 0.5 3.00024C0.5 2.61402 0.51413 2.2311 0.54189 1.85197C0.57375 1.41686 0.58968 1.19931 0.7037 1.00127C0.79814 0.837254 0.9655 0.681704 1.13598 0.599494C1.34181 0.500244 1.58188 0.500244 2.06201 0.500244H4.87932C5.28308 0.500244 5.48496 0.500244 5.65802 0.566694C5.81089 0.625394 5.94701 0.720734 6.05442 0.844344C6.17601 0.984274 6.245 1.174 6.38299 1.55345L7.5491 4.76029C7.7096 5.20177 7.7899 5.42251 7.7763 5.63194C7.7643 5.81661 7.7012 5.99432 7.5942 6.1453C7.47286 6.31652 7.27145 6.43737 6.86863 6.67906L5.5 7.50024C6.7019 10.1491 8.8501 12.3001 11.5 13.5002L12.3212 12.1316C12.5629 11.7287 12.6837 11.5273 12.8549 11.406C13.0059 11.299 13.1836 11.2359 13.3683 11.2239C13.5777 11.2103 13.7985 11.2906 14.24 11.4511L17.4468 12.6172C17.8262 12.7552 18.016 12.8242 18.1559 12.9458C18.2795 13.0532 18.3749 13.1893 18.4335 13.3422C18.5 13.5152 18.5 13.7171 18.5 14.1209V16.9382C18.5 17.4183 18.5 17.6584 18.4007 17.8642C18.3185 18.0347 18.163 18.2021 17.999 18.2965C17.8009 18.4105 17.5834 18.4264 17.1483 18.4583C16.7691 18.4861 16.3862 18.5002 16 18.5002Z" stroke="#5C5C5C" stroke-linecap="round" stroke-linejoin="round"/>
</svg>
