<svg width="25" height="25" viewBox="0 0 25 25" fill="none" xmlns="http://www.w3.org/2000/svg">
<path d="M3.125 3.125L21.875 21.875M18.75 6.25L18.3333 12.5M17.9685 17.9716L17.9157 18.7634C17.8427 19.8594 17.8061 20.4074 17.5695 20.8229C17.361 21.1887 17.0467 21.4828 16.6678 21.6665C16.2375 21.875 15.6882 21.875 14.5898 21.875H10.4102C9.31174 21.875 8.76252 21.875 8.33218 21.6665C7.9533 21.4828 7.63895 21.1887 7.43054 20.8229C7.19382 20.4074 7.15729 19.8594 7.08423 18.7634L6.25 6.25H4.16667M16.6667 6.25L16.0999 4.54952C15.8164 3.69881 15.0202 3.125 14.1234 3.125H10.8767C10.3567 3.125 9.87058 3.31791 9.49859 3.64583M12.0972 6.25H20.8333M14.5833 14.5833V17.7083M10.4167 10.4167V17.7083" stroke="white" stroke-width="2" stroke-linecap="round" stroke-linejoin="round"/>
</svg>
